<?xml version="1.0" standalone="no"?><!-- Generator: Gravit.io --><svg xmlns="http://www.w3.org/2000/svg" xmlns:xlink="http://www.w3.org/1999/xlink" style="isolation:isolate" viewBox="991.086 622.79 1869.073 396.124" width="1869.073" height="396.124"><path d=" M 991.086 1014.22 L 991.086 1014.22 L 991.086 703.043 L 991.086 703.043 Q 991.086 698.572 995.557 698.349 L 995.557 698.349 L 1020.818 698.349 L 1020.818 698.349 Q 1025.289 698.349 1025.736 703.043 L 1025.736 703.043 L 1029.983 728.08 L 1029.983 728.08 Q 1032.442 724.28 1041.272 716.568 L 1041.272 716.568 L 1041.272 716.568 Q 1050.102 708.855 1058.15 704.161 L 1058.15 704.161 L 1058.15 704.161 Q 1078.94 691.642 1105.542 691.642 L 1105.542 691.642 L 1105.542 691.642 Q 1154.499 691.642 1186.131 724.839 L 1186.131 724.839 L 1186.131 724.839 Q 1217.762 758.035 1217.762 820.629 L 1217.762 820.629 L 1217.762 820.629 Q 1217.762 883.222 1185.236 916.754 L 1185.236 916.754 L 1185.236 916.754 Q 1152.71 950.286 1100.847 950.286 L 1100.847 950.286 L 1100.847 950.286 Q 1083.411 950.286 1066.31 946.821 L 1066.31 946.821 L 1066.31 946.821 Q 1049.208 943.356 1040.49 939.779 L 1040.49 939.779 L 1032.219 936.426 L 1032.219 1014.22 L 1032.219 1014.22 Q 1032.219 1018.691 1027.748 1018.914 L 1027.748 1018.914 L 995.557 1018.914 L 995.557 1018.914 Q 991.086 1018.691 991.086 1014.22 Z  M 1032.219 771.672 L 1032.219 904.458 L 1032.219 904.458 Q 1061.95 918.095 1097.271 918.095 L 1097.271 918.095 L 1097.271 918.095 Q 1132.591 918.095 1154.499 893.84 L 1154.499 893.84 L 1154.499 893.84 Q 1176.406 869.585 1176.406 821.299 L 1176.406 821.299 L 1176.406 821.299 Q 1176.406 773.013 1156.287 748.311 L 1156.287 748.311 L 1156.287 748.311 Q 1136.168 723.609 1103.307 723.609 L 1103.307 723.609 L 1103.307 723.609 Q 1071.339 723.609 1044.961 754.459 L 1044.961 754.459 L 1044.961 754.459 Q 1032.219 769.213 1032.219 771.672 L 1032.219 771.672 Z  M 1290.862 842.536 L 1290.862 842.536 L 1290.862 703.043 L 1290.862 703.043 Q 1290.862 698.572 1295.333 698.349 L 1295.333 698.349 L 1327.524 698.349 L 1327.524 698.349 Q 1331.995 698.349 1331.995 703.043 L 1331.995 703.043 L 1331.995 842.536 L 1331.995 842.536 Q 1331.995 878.751 1350.773 898.423 L 1350.773 898.423 L 1350.773 898.423 Q 1369.55 918.095 1398.388 918.095 L 1398.388 918.095 L 1398.388 918.095 Q 1411.577 918.095 1424.431 913.065 L 1424.431 913.065 L 1424.431 913.065 Q 1437.285 908.035 1445.78 901.217 L 1445.78 901.217 L 1445.78 901.217 Q 1454.275 894.399 1460.981 887.245 L 1460.981 887.245 L 1460.981 887.245 Q 1473.947 873.162 1473.947 870.032 L 1473.947 870.032 L 1473.947 703.043 L 1473.947 703.043 Q 1473.947 698.572 1478.418 698.349 L 1478.418 698.349 L 1510.608 698.349 L 1510.608 698.349 Q 1515.079 698.349 1515.079 703.043 L 1515.079 703.043 L 1515.079 938.885 L 1515.079 938.885 Q 1515.079 943.356 1510.608 943.356 L 1510.608 943.356 L 1485.347 943.356 L 1485.347 943.356 Q 1480.877 943.356 1480.429 938.885 L 1480.429 938.885 L 1476.182 913.624 L 1476.182 913.624 Q 1473.276 918.095 1464.446 925.472 L 1464.446 925.472 L 1464.446 925.472 Q 1455.616 932.849 1447.121 937.543 L 1447.121 937.543 L 1447.121 937.543 Q 1424.766 950.286 1396.153 950.286 L 1396.153 950.286 L 1396.153 950.286 Q 1349.878 950.286 1320.37 921.56 L 1320.37 921.56 L 1320.37 921.56 Q 1290.862 892.834 1290.862 842.536 Z  M 1584.155 877.857 L 1584.155 877.857 L 1584.155 877.857 Q 1583.932 876.739 1583.932 876.068 L 1583.932 876.068 L 1583.932 876.068 Q 1583.932 872.491 1588.85 872.491 L 1588.85 872.491 L 1617.687 872.491 L 1617.687 872.491 Q 1620.37 872.491 1623.276 876.962 L 1623.276 876.962 L 1623.276 876.962 Q 1646.077 918.095 1703.305 918.095 L 1703.305 918.095 L 1703.305 918.095 Q 1735.72 918.095 1751.591 908.482 L 1751.591 908.482 L 1751.591 908.482 Q 1767.463 898.87 1767.463 884.339 L 1767.463 884.339 L 1767.463 884.339 Q 1767.463 869.809 1756.621 860.532 L 1756.621 860.532 L 1756.621 860.532 Q 1745.779 851.254 1719.401 844.995 L 1719.401 844.995 L 1662.173 831.135 L 1662.173 831.135 Q 1588.85 813.252 1588.85 760.271 L 1588.85 760.271 L 1588.85 760.271 Q 1588.85 730.092 1616.122 710.867 L 1616.122 710.867 L 1616.122 710.867 Q 1643.395 691.642 1691.01 691.642 L 1691.01 691.642 L 1691.01 691.642 Q 1738.626 691.642 1767.91 711.314 L 1767.91 711.314 L 1767.91 711.314 Q 1797.195 730.986 1806.36 763.848 L 1806.36 763.848 L 1806.36 763.848 Q 1807.702 769.436 1801.666 769.436 L 1801.666 769.436 L 1772.828 769.436 L 1772.828 769.436 Q 1770.146 769.436 1767.463 764.742 L 1767.463 764.742 L 1767.463 764.742 Q 1744.661 723.609 1691.904 723.609 L 1691.904 723.609 L 1691.904 723.609 Q 1661.279 723.609 1645.63 733.445 L 1645.63 733.445 L 1645.63 733.445 Q 1629.982 743.281 1629.982 757.7 L 1629.982 757.7 L 1629.982 757.7 Q 1629.982 772.119 1640.824 781.284 L 1640.824 781.284 L 1640.824 781.284 Q 1651.666 790.45 1678.045 796.933 L 1678.045 796.933 L 1735.273 810.569 L 1735.273 810.569 Q 1808.596 828.006 1808.596 881.657 L 1808.596 881.657 L 1808.596 881.657 Q 1808.596 911.836 1780.876 931.061 L 1780.876 931.061 L 1780.876 931.061 Q 1753.156 950.286 1703.305 950.286 L 1703.305 950.286 L 1703.305 950.286 Q 1653.455 950.286 1623.387 930.837 L 1623.387 930.837 L 1623.387 930.837 Q 1593.32 911.389 1584.155 877.857 Z  M 1877.225 849.466 L 1877.225 849.466 L 1877.225 627.484 L 1877.225 627.484 Q 1877.225 622.79 1881.696 622.79 L 1881.696 622.79 L 1913.886 622.79 L 1913.886 622.79 Q 1918.357 622.79 1918.357 627.484 L 1918.357 627.484 L 1918.357 698.349 L 2011.8 698.349 L 2011.8 698.349 Q 2016.271 698.349 2016.271 703.043 L 2016.271 703.043 L 2016.271 725.845 L 2016.271 725.845 Q 2016.271 730.539 2011.8 730.539 L 2011.8 730.539 L 1918.357 730.539 L 1918.357 849.466 L 1918.357 849.466 Q 1918.357 883.445 1934.117 900.77 L 1934.117 900.77 L 1934.117 900.77 Q 1949.877 918.095 1977.821 918.095 L 1977.821 918.095 L 1977.821 918.095 Q 2002.411 918.095 2021.859 911.389 L 2021.859 911.389 L 2028.342 908.929 L 2028.342 908.929 Q 2032.813 907.141 2032.813 912.73 L 2032.813 912.73 L 2032.813 935.084 L 2032.813 935.084 Q 2032.813 938.885 2028.342 941.12 L 2028.342 941.12 L 2028.342 941.12 Q 2005.317 950.286 1973.35 950.286 L 1973.35 950.286 L 1973.35 950.286 Q 1929.311 950.286 1903.268 922.566 L 1903.268 922.566 L 1903.268 922.566 Q 1877.225 894.846 1877.225 849.466 Z  M 2099.989 929.384 L 2099.989 929.384 L 2099.989 929.384 Q 2074.169 908.482 2074.169 872.38 L 2074.169 872.38 L 2074.169 872.38 Q 2074.169 836.277 2100.659 815.375 L 2100.659 815.375 L 2100.659 815.375 Q 2127.149 794.474 2174.765 794.474 L 2174.765 794.474 L 2252.783 794.474 L 2252.783 792.238 L 2252.783 792.238 Q 2252.783 723.609 2183.93 723.609 L 2183.93 723.609 L 2183.93 723.609 Q 2162.47 723.609 2147.38 733.893 L 2147.38 733.893 L 2147.38 733.893 Q 2132.291 744.176 2126.702 760.271 L 2126.702 760.271 L 2126.702 760.271 Q 2125.361 764.742 2121.337 764.742 L 2121.337 764.742 L 2092.5 764.742 L 2092.5 764.742 Q 2087.358 764.742 2087.805 760.271 L 2087.805 760.271 L 2087.805 760.271 Q 2091.382 729.198 2117.314 710.42 L 2117.314 710.42 L 2117.314 710.42 Q 2143.245 691.642 2183.93 691.642 L 2183.93 691.642 L 2183.93 691.642 Q 2237.135 691.642 2265.525 717.909 L 2265.525 717.909 L 2265.525 717.909 Q 2293.915 744.176 2293.915 792.238 L 2293.915 792.238 L 2293.915 938.885 L 2293.915 938.885 Q 2293.915 943.356 2289.221 943.356 L 2289.221 943.356 L 2264.184 943.356 L 2264.184 943.356 Q 2259.713 943.356 2259.042 938.885 L 2259.042 938.885 L 2255.018 913.624 L 2255.018 913.624 Q 2252.336 917.871 2243.17 925.36 L 2243.17 925.36 L 2243.17 925.36 Q 2234.005 932.849 2224.839 937.543 L 2224.839 937.543 L 2224.839 937.543 Q 2200.696 950.286 2170.294 950.286 L 2170.294 950.286 L 2170.294 950.286 Q 2125.808 950.286 2099.989 929.384 Z  M 2115.302 872.491 L 2115.302 872.491 L 2115.302 872.491 Q 2115.302 894.846 2130.168 906.47 L 2130.168 906.47 L 2130.168 906.47 Q 2145.033 918.095 2172.53 918.095 L 2172.53 918.095 L 2172.53 918.095 Q 2187.283 918.095 2201.032 913.065 L 2201.032 913.065 L 2201.032 913.065 Q 2214.78 908.035 2223.61 901.217 L 2223.61 901.217 L 2223.61 901.217 Q 2232.44 894.399 2239.37 887.245 L 2239.37 887.245 L 2239.37 887.245 Q 2246.3 880.092 2249.541 875.286 L 2249.541 875.286 L 2249.541 875.286 Q 2252.783 870.479 2252.783 870.032 L 2252.783 870.032 L 2252.783 826.664 L 2174.765 826.664 L 2174.765 826.664 Q 2115.302 826.664 2115.302 872.491 Z  M 2380.875 938.885 L 2380.875 938.885 L 2380.875 627.484 L 2380.875 627.484 Q 2380.875 623.013 2385.346 622.79 L 2385.346 622.79 L 2417.536 622.79 L 2417.536 622.79 Q 2422.007 622.79 2422.007 627.484 L 2422.007 627.484 L 2422.007 803.639 L 2445.033 803.639 L 2445.033 803.639 Q 2482.588 803.639 2504.496 769.436 L 2504.496 769.436 L 2546.076 703.043 L 2546.076 703.043 Q 2549.205 698.572 2553.006 698.349 L 2553.006 698.349 L 2588.326 698.349 L 2588.326 698.349 Q 2595.256 698.349 2591.456 703.937 L 2591.456 703.937 L 2547.864 773.907 L 2547.864 773.907 Q 2524.168 811.91 2490.636 817.499 L 2490.636 817.499 L 2490.636 817.499 Q 2525.51 822.64 2552.559 865.561 L 2552.559 865.561 L 2597.939 937.767 L 2597.939 937.767 Q 2599.28 939.779 2599.168 941.567 L 2599.168 941.567 L 2599.168 941.567 Q 2599.056 943.356 2594.585 943.356 L 2594.585 943.356 L 2559.489 943.356 L 2559.489 943.356 Q 2555.912 943.356 2552.559 938.885 L 2552.559 938.885 L 2508.967 870.032 L 2508.967 870.032 Q 2487.059 835.606 2449.504 835.83 L 2449.504 835.83 L 2422.007 835.83 L 2422.007 938.885 L 2422.007 938.885 Q 2422.007 943.356 2417.536 943.356 L 2417.536 943.356 L 2385.346 943.356 L 2385.346 943.356 Q 2380.875 943.356 2380.875 938.885 Z  M 2666.232 929.384 L 2666.232 929.384 L 2666.232 929.384 Q 2640.412 908.482 2640.412 872.38 L 2640.412 872.38 L 2640.412 872.38 Q 2640.412 836.277 2666.903 815.375 L 2666.903 815.375 L 2666.903 815.375 Q 2693.393 794.474 2741.008 794.474 L 2741.008 794.474 L 2819.026 794.474 L 2819.026 792.238 L 2819.026 792.238 Q 2819.026 723.609 2750.174 723.609 L 2750.174 723.609 L 2750.174 723.609 Q 2728.713 723.609 2713.624 733.893 L 2713.624 733.893 L 2713.624 733.893 Q 2698.534 744.176 2692.946 760.271 L 2692.946 760.271 L 2692.946 760.271 Q 2691.605 764.742 2687.581 764.742 L 2687.581 764.742 L 2658.743 764.742 L 2658.743 764.742 Q 2653.602 764.742 2654.049 760.271 L 2654.049 760.271 L 2654.049 760.271 Q 2657.626 729.198 2683.557 710.42 L 2683.557 710.42 L 2683.557 710.42 Q 2709.488 691.642 2750.174 691.642 L 2750.174 691.642 L 2750.174 691.642 Q 2803.378 691.642 2831.768 717.909 L 2831.768 717.909 L 2831.768 717.909 Q 2860.159 744.176 2860.159 792.238 L 2860.159 792.238 L 2860.159 938.885 L 2860.159 938.885 Q 2860.159 943.356 2855.464 943.356 L 2855.464 943.356 L 2830.427 943.356 L 2830.427 943.356 Q 2825.956 943.356 2825.285 938.885 L 2825.285 938.885 L 2821.262 913.624 L 2821.262 913.624 Q 2818.579 917.871 2809.414 925.36 L 2809.414 925.36 L 2809.414 925.36 Q 2800.248 932.849 2791.083 937.543 L 2791.083 937.543 L 2791.083 937.543 Q 2766.94 950.286 2736.537 950.286 L 2736.537 950.286 L 2736.537 950.286 Q 2692.052 950.286 2666.232 929.384 Z  M 2681.545 872.491 L 2681.545 872.491 L 2681.545 872.491 Q 2681.545 894.846 2696.411 906.47 L 2696.411 906.47 L 2696.411 906.47 Q 2711.277 918.095 2738.773 918.095 L 2738.773 918.095 L 2738.773 918.095 Q 2753.527 918.095 2767.275 913.065 L 2767.275 913.065 L 2767.275 913.065 Q 2781.023 908.035 2789.853 901.217 L 2789.853 901.217 L 2789.853 901.217 Q 2798.683 894.399 2805.613 887.245 L 2805.613 887.245 L 2805.613 887.245 Q 2812.543 880.092 2815.785 875.286 L 2815.785 875.286 L 2815.785 875.286 Q 2819.026 870.479 2819.026 870.032 L 2819.026 870.032 L 2819.026 826.664 L 2741.008 826.664 L 2741.008 826.664 Q 2681.545 826.664 2681.545 872.491 Z " fill="rgb(81,81,81)"/></svg>