<?xml version="1.0" standalone="no"?><!-- Generator: Gravit.io --><svg xmlns="http://www.w3.org/2000/svg" xmlns:xlink="http://www.w3.org/1999/xlink" style="isolation:isolate" viewBox="1964.027 62.786 519.946 778.428" width="519.946" height="778.428"><path d=" M 2011 429.953 L 2437 429.953 L 2437 481.953 L 2011 481.953 L 2011 429.953 L 2011 429.953 L 2011 429.953 Z  M 2011 240.953 L 2437 240.953 L 2437 292.953 L 2011 292.953 L 2011 240.953 L 2011 240.953 Z  M 1964.398 62.786 L 1964.027 841.214 L 2224 612.805 L 2483.973 841.214 L 2483.973 62.786 L 1964.398 62.786 L 1964.398 62.786 L 1964.398 62.786 Z  M 2011 335.453 L 2437 335.453 L 2437 387.453 L 2011 387.453 L 2011 335.453 Z " fill-rule="evenodd" fill="rgb(223,52,92)"/><path d=" M 2089.128 190.686 L 2089.128 190.686 L 2089.128 128.884 L 2089.128 128.884 Q 2089.128 127.997 2090.015 127.953 L 2090.015 127.953 L 2096.404 127.953 L 2096.404 127.953 Q 2099.021 127.953 2100.485 130.703 L 2100.485 130.703 L 2123.911 175.291 L 2147.291 130.703 L 2147.291 130.703 Q 2148.755 127.997 2151.373 127.953 L 2151.373 127.953 L 2157.717 127.953 L 2157.717 127.953 Q 2158.605 127.953 2158.649 128.884 L 2158.649 128.884 L 2158.649 190.686 L 2158.649 190.686 Q 2158.649 191.573 2157.717 191.573 L 2157.717 191.573 L 2151.373 191.573 L 2151.373 191.573 Q 2150.486 191.573 2150.441 190.686 L 2150.441 190.686 L 2150.441 141.617 L 2129.545 181.103 L 2129.545 181.103 Q 2128.081 183.809 2125.463 183.854 L 2125.463 183.854 L 2122.269 183.854 L 2122.269 183.854 Q 2119.651 183.854 2118.187 181.103 L 2118.187 181.103 L 2097.291 141.617 L 2097.291 190.686 L 2097.291 190.686 Q 2097.291 191.573 2096.404 191.573 L 2096.404 191.573 L 2090.015 191.573 L 2090.015 191.573 Q 2089.128 191.573 2089.128 190.686 Z  M 2176.795 190.686 L 2176.795 190.686 L 2176.795 128.884 L 2176.795 128.884 Q 2176.795 127.953 2177.682 127.953 L 2177.682 127.953 L 2221.693 127.953 L 2221.693 127.953 Q 2222.58 127.953 2222.58 128.884 L 2222.58 128.884 L 2222.58 133.41 L 2222.58 133.41 Q 2222.58 134.341 2221.693 134.341 L 2221.693 134.341 L 2184.958 134.341 L 2184.958 156.125 L 2215.304 156.125 L 2215.304 156.125 Q 2216.236 156.125 2216.236 157.057 L 2216.236 157.057 L 2216.236 161.582 L 2216.236 161.582 Q 2216.236 162.514 2215.304 162.514 L 2215.304 162.514 L 2184.958 162.514 L 2184.958 185.229 L 2221.693 185.229 L 2221.693 185.229 Q 2222.58 185.229 2222.58 186.116 L 2222.58 186.116 L 2222.58 190.686 L 2222.58 190.686 Q 2222.58 191.573 2221.693 191.573 L 2221.693 191.573 L 2177.682 191.573 L 2177.682 191.573 Q 2176.795 191.573 2176.795 190.686 Z  M 2235.313 190.686 L 2235.313 190.686 L 2235.313 128.884 L 2235.313 128.884 Q 2235.313 127.953 2236.201 127.953 L 2236.201 127.953 L 2242.589 127.953 L 2242.589 127.953 Q 2245.296 127.953 2247.115 130.703 L 2247.115 130.703 L 2280.744 180.659 L 2280.744 128.884 L 2280.744 128.884 Q 2280.744 127.953 2281.631 127.953 L 2281.631 127.953 L 2288.02 127.953 L 2288.02 127.953 Q 2288.907 127.953 2288.907 128.884 L 2288.907 128.884 L 2288.907 190.686 L 2288.907 190.686 Q 2288.907 191.573 2288.02 191.573 L 2288.02 191.573 L 2281.631 191.573 L 2281.631 191.573 Q 2278.925 191.573 2277.106 188.867 L 2277.106 188.867 L 2243.477 138.867 L 2243.477 190.686 L 2243.477 190.686 Q 2243.477 191.573 2242.589 191.573 L 2242.589 191.573 L 2236.201 191.573 L 2236.201 191.573 Q 2235.313 191.573 2235.313 190.686 Z  M 2306.166 166.152 L 2306.166 166.152 L 2306.166 128.884 L 2306.166 128.884 Q 2306.166 127.997 2307.097 127.953 L 2307.097 127.953 L 2313.442 127.953 L 2313.442 127.953 Q 2314.329 127.953 2314.373 128.884 L 2314.373 128.884 L 2314.373 166.152 L 2314.373 166.152 Q 2314.373 176.223 2319.453 181.392 L 2319.453 181.392 L 2319.453 181.392 Q 2324.533 186.56 2332.519 186.56 L 2332.519 186.56 L 2332.519 186.56 Q 2340.505 186.56 2345.607 181.392 L 2345.607 181.392 L 2345.607 181.392 Q 2350.709 176.223 2350.709 166.152 L 2350.709 166.152 L 2350.709 128.884 L 2350.709 128.884 Q 2350.709 127.997 2351.597 127.953 L 2351.597 127.953 L 2357.985 127.953 L 2357.985 127.953 Q 2358.873 127.953 2358.873 128.884 L 2358.873 128.884 L 2358.873 166.152 L 2358.873 166.152 Q 2358.873 178.619 2351.597 185.784 L 2351.597 185.784 L 2351.597 185.784 Q 2344.32 192.949 2332.519 192.949 L 2332.519 192.949 L 2332.519 192.949 Q 2320.718 192.949 2313.442 185.784 L 2313.442 185.784 L 2313.442 185.784 Q 2306.166 178.619 2306.166 166.152 Z " fill="rgb(255,255,255)"/></svg>