<?xml version="1.0" standalone="no"?><!-- Generator: Gravit.io --><svg xmlns="http://www.w3.org/2000/svg" xmlns:xlink="http://www.w3.org/1999/xlink" style="isolation:isolate" viewBox="1654.054 370.833 519.946 778.428" width="519.946" height="778.428"><path d=" M 1654.426 370.833 L 1654.054 1149.261 L 1914.027 920.852 L 2174 1149.261 L 2174 370.833 L 1654.426 370.833 Z " fill="rgb(223,52,92)"/><rect x="1701.027" y="549" width="426" height="52" transform="matrix(1,0,0,1,0,0)" fill="rgb(255,255,255)"/><rect x="1701.027" y="643.5" width="426" height="52" transform="matrix(1,0,0,1,0,0)" fill="rgb(255,255,255)"/><rect x="1701.027" y="738" width="426" height="52" transform="matrix(1,0,0,1,0,0)" fill="rgb(255,255,255)"/><path d=" M 1779.155 498.733 L 1779.155 498.733 L 1779.155 436.932 L 1779.155 436.932 Q 1779.155 436.044 1780.042 436 L 1780.042 436 L 1786.431 436 L 1786.431 436 Q 1789.048 436 1790.512 438.751 L 1790.512 438.751 L 1813.938 483.338 L 1837.318 438.751 L 1837.318 438.751 Q 1838.782 436.044 1841.4 436 L 1841.4 436 L 1847.744 436 L 1847.744 436 Q 1848.632 436 1848.676 436.932 L 1848.676 436.932 L 1848.676 498.733 L 1848.676 498.733 Q 1848.676 499.621 1847.744 499.621 L 1847.744 499.621 L 1841.4 499.621 L 1841.4 499.621 Q 1840.513 499.621 1840.468 498.733 L 1840.468 498.733 L 1840.468 449.665 L 1819.572 489.15 L 1819.572 489.15 Q 1818.108 491.857 1815.49 491.901 L 1815.49 491.901 L 1812.296 491.901 L 1812.296 491.901 Q 1809.678 491.901 1808.214 489.15 L 1808.214 489.15 L 1787.318 449.665 L 1787.318 498.733 L 1787.318 498.733 Q 1787.318 499.621 1786.431 499.621 L 1786.431 499.621 L 1780.042 499.621 L 1780.042 499.621 Q 1779.155 499.621 1779.155 498.733 Z  M 1866.822 498.733 L 1866.822 498.733 L 1866.822 436.932 L 1866.822 436.932 Q 1866.822 436 1867.709 436 L 1867.709 436 L 1911.72 436 L 1911.72 436 Q 1912.607 436 1912.607 436.932 L 1912.607 436.932 L 1912.607 441.457 L 1912.607 441.457 Q 1912.607 442.389 1911.72 442.389 L 1911.72 442.389 L 1874.985 442.389 L 1874.985 464.172 L 1905.331 464.172 L 1905.331 464.172 Q 1906.263 464.172 1906.263 465.104 L 1906.263 465.104 L 1906.263 469.629 L 1906.263 469.629 Q 1906.263 470.561 1905.331 470.561 L 1905.331 470.561 L 1874.985 470.561 L 1874.985 493.276 L 1911.72 493.276 L 1911.72 493.276 Q 1912.607 493.276 1912.607 494.164 L 1912.607 494.164 L 1912.607 498.733 L 1912.607 498.733 Q 1912.607 499.621 1911.72 499.621 L 1911.72 499.621 L 1867.709 499.621 L 1867.709 499.621 Q 1866.822 499.621 1866.822 498.733 Z  M 1925.34 498.733 L 1925.34 498.733 L 1925.34 436.932 L 1925.34 436.932 Q 1925.34 436 1926.228 436 L 1926.228 436 L 1932.616 436 L 1932.616 436 Q 1935.323 436 1937.142 438.751 L 1937.142 438.751 L 1970.771 488.707 L 1970.771 436.932 L 1970.771 436.932 Q 1970.771 436 1971.658 436 L 1971.658 436 L 1978.047 436 L 1978.047 436 Q 1978.934 436 1978.934 436.932 L 1978.934 436.932 L 1978.934 498.733 L 1978.934 498.733 Q 1978.934 499.621 1978.047 499.621 L 1978.047 499.621 L 1971.658 499.621 L 1971.658 499.621 Q 1968.952 499.621 1967.133 496.914 L 1967.133 496.914 L 1933.504 446.914 L 1933.504 498.733 L 1933.504 498.733 Q 1933.504 499.621 1932.616 499.621 L 1932.616 499.621 L 1926.228 499.621 L 1926.228 499.621 Q 1925.34 499.621 1925.34 498.733 Z  M 1996.193 474.199 L 1996.193 474.199 L 1996.193 436.932 L 1996.193 436.932 Q 1996.193 436.044 1997.124 436 L 1997.124 436 L 2003.469 436 L 2003.469 436 Q 2004.356 436 2004.4 436.932 L 2004.4 436.932 L 2004.4 474.199 L 2004.4 474.199 Q 2004.4 484.27 2009.48 489.439 L 2009.48 489.439 L 2009.48 489.439 Q 2014.56 494.607 2022.546 494.607 L 2022.546 494.607 L 2022.546 494.607 Q 2030.532 494.607 2035.634 489.439 L 2035.634 489.439 L 2035.634 489.439 Q 2040.736 484.27 2040.736 474.199 L 2040.736 474.199 L 2040.736 436.932 L 2040.736 436.932 Q 2040.736 436.044 2041.623 436 L 2041.623 436 L 2048.012 436 L 2048.012 436 Q 2048.899 436 2048.899 436.932 L 2048.899 436.932 L 2048.899 474.199 L 2048.899 474.199 Q 2048.899 486.666 2041.623 493.831 L 2041.623 493.831 L 2041.623 493.831 Q 2034.347 500.996 2022.546 500.996 L 2022.546 500.996 L 2022.546 500.996 Q 2010.745 500.996 2003.469 493.831 L 2003.469 493.831 L 2003.469 493.831 Q 1996.193 486.666 1996.193 474.199 Z " fill="rgb(255,255,255)"/></svg>