<svg xmlns="http://www.w3.org/2000/svg" style="isolation:isolate" viewBox="621.916 543.454 2607.412 555.561" width="2607.412" height="555.561"><path d="M950.966 605.44H676.758c-30.3 0-54.568 24.542-54.568 54.842l-.274 438.733 191.946-189.118 191.946 189.118V660.282c0-30.3-24.542-54.842-54.842-54.842z" fill="#DF345C"/><path d="M1217.276 1046.258V735.081q0-4.471 4.471-4.694h25.26q4.471 0 4.918 4.694l4.248 25.038q2.459-3.801 11.289-11.513t16.878-12.407q20.789-12.518 47.391-12.518 48.957 0 80.589 33.196 31.632 33.197 31.632 95.79t-32.526 96.125q-32.526 33.532-84.389 33.532-17.437 0-34.538-3.465-17.101-3.465-25.82-7.042l-8.271-3.353v77.794q0 4.471-4.471 4.695h-32.19q-4.471-.224-4.471-4.695zm41.132-242.548v132.787q29.732 13.636 65.052 13.636 35.321 0 57.228-24.255 21.908-24.254 21.908-72.541 0-48.286-20.119-72.987-20.12-24.702-52.981-24.702-31.967 0-58.346 30.849-12.742 14.754-12.742 17.213zm258.643 70.864V735.081q0-4.471 4.471-4.694h32.191q4.471 0 4.471 4.694v139.493q0 36.215 18.778 55.887 18.778 19.672 47.615 19.672 13.19 0 26.044-5.03 12.853-5.029 21.348-11.848 8.495-6.818 15.202-13.971 12.965-14.084 12.965-17.213v-166.99q0-4.471 4.471-4.694h32.191q4.471 0 4.471 4.694v235.842q0 4.471-4.471 4.471h-25.261q-4.471 0-4.918-4.471l-4.247-25.261q-2.906 4.471-11.737 11.848-8.83 7.377-17.324 12.072-22.355 12.742-50.969 12.742-46.274 0-75.782-28.726-29.509-28.726-29.509-79.024zm293.294 35.321q-.224-1.118-.224-1.789 0-3.576 4.918-3.576h28.838q2.682 0 5.588 4.471 22.802 41.132 80.03 41.132 32.414 0 48.286-9.612 15.872-9.613 15.872-24.143 0-14.531-10.842-23.808t-37.221-15.537l-57.228-13.859q-73.323-17.884-73.323-70.865 0-30.178 27.273-49.403 27.272-19.225 74.888-19.225 47.615 0 76.9 19.672 29.284 19.672 38.45 52.533 1.341 5.589-4.695 5.589h-28.837q-2.683 0-5.365-4.695-22.802-41.132-75.559-41.132-30.626 0-46.274 9.836t-15.648 24.255q0 14.418 10.842 23.584 10.842 9.165 37.22 15.648l57.228 13.636q73.323 17.437 73.323 71.088 0 30.179-27.719 49.404-27.72 19.225-77.571 19.225t-79.918-19.449q-30.067-19.448-39.232-52.98zm293.069-28.391V659.523q0-4.695 4.471-4.695h32.191q4.471 0 4.471 4.695v70.864h93.442q4.471 0 4.471 4.694v22.802q0 4.695-4.471 4.695h-93.442v118.926q0 33.979 15.76 51.304 15.76 17.325 43.703 17.325 24.59 0 44.039-6.706l6.483-2.459q4.471-1.789 4.471 3.8v22.355q0 3.8-4.471 6.035-23.026 9.166-54.993 9.166-44.039 0-70.082-27.72-26.043-27.72-26.043-73.1zm222.764 79.918q-25.819-20.901-25.819-57.004 0-36.103 26.49-57.004 26.49-20.902 74.105-20.902h78.018v-2.236q0-68.628-68.852-68.628-21.46 0-36.55 10.283-15.089 10.283-20.678 26.378-1.341 4.471-5.365 4.471h-28.838q-5.141 0-4.694-4.471 3.577-31.073 29.508-49.851 25.931-18.777 66.617-18.777 53.204 0 81.594 26.266 28.391 26.267 28.391 74.329v146.647q0 4.471-4.695 4.471h-25.037q-4.471 0-5.141-4.471l-4.024-25.261q-2.683 4.248-11.848 11.736-9.166 7.489-18.331 12.184-24.143 12.742-54.545 12.742-44.486 0-70.306-20.902zm15.313-56.892q0 22.354 14.866 33.979 14.866 11.624 42.362 11.624 14.754 0 28.502-5.03 13.748-5.029 22.578-11.848 8.83-6.818 15.76-13.971 6.93-7.154 10.172-11.96 3.241-4.806 3.241-5.253v-43.368h-78.018q-59.463 0-59.463 45.827zm265.573 66.393v-311.4q0-4.471 4.471-4.695h32.191q4.471 0 4.471 4.695v176.154h23.025q37.556 0 59.464-34.202l41.579-66.394q3.13-4.471 6.93-4.694h35.32q6.93 0 3.13 5.589l-43.591 69.97q-23.696 38.003-57.228 43.591 34.873 5.142 61.922 48.063l45.38 72.205q1.341 2.012 1.23 3.801-.112 1.788-4.583 1.788h-35.097q-3.577 0-6.93-4.471l-43.591-68.852q-21.908-34.426-59.464-34.203h-27.496v103.055q0 4.471-4.471 4.471h-32.191q-4.471 0-4.471-4.471zm285.357-9.501q-25.819-20.901-25.819-57.004 0-36.103 26.49-57.004 26.49-20.902 74.106-20.902h78.018v-2.236q0-68.628-68.853-68.628-21.46 0-36.55 10.283-15.089 10.283-20.678 26.378-1.341 4.471-5.365 4.471h-28.837q-5.142 0-4.695-4.471 3.577-31.073 29.508-49.851 25.932-18.777 66.617-18.777 53.204 0 81.595 26.266 28.39 26.267 28.39 74.329v146.647q0 4.471-4.694 4.471h-25.037q-4.471 0-5.142-4.471l-4.024-25.261q-2.683 4.248-11.848 11.736-9.165 7.489-18.331 12.184-24.143 12.742-54.545 12.742-44.486 0-70.306-20.902zm15.313-56.892q0 22.354 14.866 33.979 14.866 11.624 42.362 11.624 14.754 0 28.502-5.03 13.749-5.029 22.579-11.848 8.83-6.818 15.76-13.971 6.93-7.154 10.171-11.96 3.242-4.806 3.242-5.253v-43.368h-78.018q-59.464 0-59.464 45.827z" fill="#515151"/></svg>