<?xml version="1.0" standalone="no"?><!-- Generator: Gravit.io --><svg xmlns="http://www.w3.org/2000/svg" xmlns:xlink="http://www.w3.org/1999/xlink" style="isolation:isolate" viewBox="621.916 543.454 2607.412 555.561" width="2607.412" height="555.561"><g><path d=" M 950.966 605.44 L 676.758 605.44 C 646.458 605.44 622.19 629.982 622.19 660.282 L 621.916 1099.015 L 813.862 909.897 L 1005.808 1099.015 L 1005.808 660.282 C 1005.808 629.982 981.266 605.44 950.966 605.44 Z " fill="rgb(223,52,92)"/><path d=" M 1217.276 1046.258 L 1217.276 1046.258 L 1217.276 735.081 L 1217.276 735.081 Q 1217.276 730.61 1221.747 730.387 L 1221.747 730.387 L 1247.007 730.387 L 1247.007 730.387 Q 1251.478 730.387 1251.925 735.081 L 1251.925 735.081 L 1256.173 760.119 L 1256.173 760.119 Q 1258.632 756.318 1267.462 748.606 L 1267.462 748.606 L 1267.462 748.606 Q 1276.292 740.894 1284.34 736.199 L 1284.34 736.199 L 1284.34 736.199 Q 1305.129 723.681 1331.731 723.681 L 1331.731 723.681 L 1331.731 723.681 Q 1380.688 723.681 1412.32 756.877 L 1412.32 756.877 L 1412.32 756.877 Q 1443.952 790.074 1443.952 852.667 L 1443.952 852.667 L 1443.952 852.667 Q 1443.952 915.26 1411.426 948.792 L 1411.426 948.792 L 1411.426 948.792 Q 1378.9 982.324 1327.037 982.324 L 1327.037 982.324 L 1327.037 982.324 Q 1309.6 982.324 1292.499 978.859 L 1292.499 978.859 L 1292.499 978.859 Q 1275.398 975.394 1266.679 971.817 L 1266.679 971.817 L 1258.408 968.464 L 1258.408 1046.258 L 1258.408 1046.258 Q 1258.408 1050.729 1253.937 1050.953 L 1253.937 1050.953 L 1221.747 1050.953 L 1221.747 1050.953 Q 1217.276 1050.729 1217.276 1046.258 Z  M 1258.408 803.71 L 1258.408 936.497 L 1258.408 936.497 Q 1288.14 950.133 1323.46 950.133 L 1323.46 950.133 L 1323.46 950.133 Q 1358.781 950.133 1380.688 925.878 L 1380.688 925.878 L 1380.688 925.878 Q 1402.596 901.624 1402.596 853.337 L 1402.596 853.337 L 1402.596 853.337 Q 1402.596 805.051 1382.477 780.35 L 1382.477 780.35 L 1382.477 780.35 Q 1362.357 755.648 1329.496 755.648 L 1329.496 755.648 L 1329.496 755.648 Q 1297.529 755.648 1271.15 786.497 L 1271.15 786.497 L 1271.15 786.497 Q 1258.408 801.251 1258.408 803.71 L 1258.408 803.71 Z  M 1517.051 874.574 L 1517.051 874.574 L 1517.051 735.081 L 1517.051 735.081 Q 1517.051 730.61 1521.522 730.387 L 1521.522 730.387 L 1553.713 730.387 L 1553.713 730.387 Q 1558.184 730.387 1558.184 735.081 L 1558.184 735.081 L 1558.184 874.574 L 1558.184 874.574 Q 1558.184 910.789 1576.962 930.461 L 1576.962 930.461 L 1576.962 930.461 Q 1595.74 950.133 1624.577 950.133 L 1624.577 950.133 L 1624.577 950.133 Q 1637.767 950.133 1650.621 945.103 L 1650.621 945.103 L 1650.621 945.103 Q 1663.474 940.074 1671.969 933.255 L 1671.969 933.255 L 1671.969 933.255 Q 1680.464 926.437 1687.171 919.284 L 1687.171 919.284 L 1687.171 919.284 Q 1700.136 905.2 1700.136 902.071 L 1700.136 902.071 L 1700.136 735.081 L 1700.136 735.081 Q 1700.136 730.61 1704.607 730.387 L 1704.607 730.387 L 1736.798 730.387 L 1736.798 730.387 Q 1741.269 730.387 1741.269 735.081 L 1741.269 735.081 L 1741.269 970.923 L 1741.269 970.923 Q 1741.269 975.394 1736.798 975.394 L 1736.798 975.394 L 1711.537 975.394 L 1711.537 975.394 Q 1707.066 975.394 1706.619 970.923 L 1706.619 970.923 L 1702.372 945.662 L 1702.372 945.662 Q 1699.466 950.133 1690.635 957.51 L 1690.635 957.51 L 1690.635 957.51 Q 1681.805 964.887 1673.311 969.582 L 1673.311 969.582 L 1673.311 969.582 Q 1650.956 982.324 1622.342 982.324 L 1622.342 982.324 L 1622.342 982.324 Q 1576.068 982.324 1546.56 953.598 L 1546.56 953.598 L 1546.56 953.598 Q 1517.051 924.872 1517.051 874.574 Z  M 1810.345 909.895 L 1810.345 909.895 L 1810.345 909.895 Q 1810.121 908.777 1810.121 908.106 L 1810.121 908.106 L 1810.121 908.106 Q 1810.121 904.53 1815.039 904.53 L 1815.039 904.53 L 1843.877 904.53 L 1843.877 904.53 Q 1846.559 904.53 1849.465 909.001 L 1849.465 909.001 L 1849.465 909.001 Q 1872.267 950.133 1929.495 950.133 L 1929.495 950.133 L 1929.495 950.133 Q 1961.909 950.133 1977.781 940.521 L 1977.781 940.521 L 1977.781 940.521 Q 1993.653 930.908 1993.653 916.378 L 1993.653 916.378 L 1993.653 916.378 Q 1993.653 901.847 1982.811 892.57 L 1982.811 892.57 L 1982.811 892.57 Q 1971.969 883.293 1945.59 877.033 L 1945.59 877.033 L 1888.362 863.174 L 1888.362 863.174 Q 1815.039 845.29 1815.039 792.309 L 1815.039 792.309 L 1815.039 792.309 Q 1815.039 762.131 1842.312 742.906 L 1842.312 742.906 L 1842.312 742.906 Q 1869.584 723.681 1917.2 723.681 L 1917.2 723.681 L 1917.2 723.681 Q 1964.815 723.681 1994.1 743.353 L 1994.1 743.353 L 1994.1 743.353 Q 2023.384 763.025 2032.55 795.886 L 2032.55 795.886 L 2032.55 795.886 Q 2033.891 801.475 2027.855 801.475 L 2027.855 801.475 L 1999.018 801.475 L 1999.018 801.475 Q 1996.335 801.475 1993.653 796.78 L 1993.653 796.78 L 1993.653 796.78 Q 1970.851 755.648 1918.094 755.648 L 1918.094 755.648 L 1918.094 755.648 Q 1887.468 755.648 1871.82 765.484 L 1871.82 765.484 L 1871.82 765.484 Q 1856.172 775.32 1856.172 789.739 L 1856.172 789.739 L 1856.172 789.739 Q 1856.172 804.157 1867.014 813.323 L 1867.014 813.323 L 1867.014 813.323 Q 1877.856 822.488 1904.234 828.971 L 1904.234 828.971 L 1961.462 842.607 L 1961.462 842.607 Q 2034.785 860.044 2034.785 913.695 L 2034.785 913.695 L 2034.785 913.695 Q 2034.785 943.874 2007.066 963.099 L 2007.066 963.099 L 2007.066 963.099 Q 1979.346 982.324 1929.495 982.324 L 1929.495 982.324 L 1929.495 982.324 Q 1879.644 982.324 1849.577 962.875 L 1849.577 962.875 L 1849.577 962.875 Q 1819.51 943.427 1810.345 909.895 Z  M 2103.414 881.504 L 2103.414 881.504 L 2103.414 659.523 L 2103.414 659.523 Q 2103.414 654.828 2107.885 654.828 L 2107.885 654.828 L 2140.076 654.828 L 2140.076 654.828 Q 2144.547 654.828 2144.547 659.523 L 2144.547 659.523 L 2144.547 730.387 L 2237.989 730.387 L 2237.989 730.387 Q 2242.46 730.387 2242.46 735.081 L 2242.46 735.081 L 2242.46 757.883 L 2242.46 757.883 Q 2242.46 762.578 2237.989 762.578 L 2237.989 762.578 L 2144.547 762.578 L 2144.547 881.504 L 2144.547 881.504 Q 2144.547 915.483 2160.307 932.808 L 2160.307 932.808 L 2160.307 932.808 Q 2176.067 950.133 2204.01 950.133 L 2204.01 950.133 L 2204.01 950.133 Q 2228.6 950.133 2248.049 943.427 L 2248.049 943.427 L 2254.532 940.968 L 2254.532 940.968 Q 2259.003 939.179 2259.003 944.768 L 2259.003 944.768 L 2259.003 967.123 L 2259.003 967.123 Q 2259.003 970.923 2254.532 973.158 L 2254.532 973.158 L 2254.532 973.158 Q 2231.506 982.324 2199.539 982.324 L 2199.539 982.324 L 2199.539 982.324 Q 2155.5 982.324 2129.457 954.604 L 2129.457 954.604 L 2129.457 954.604 Q 2103.414 926.884 2103.414 881.504 Z  M 2326.178 961.422 L 2326.178 961.422 L 2326.178 961.422 Q 2300.359 940.521 2300.359 904.418 L 2300.359 904.418 L 2300.359 904.418 Q 2300.359 868.315 2326.849 847.414 L 2326.849 847.414 L 2326.849 847.414 Q 2353.339 826.512 2400.954 826.512 L 2400.954 826.512 L 2478.972 826.512 L 2478.972 824.276 L 2478.972 824.276 Q 2478.972 755.648 2410.12 755.648 L 2410.12 755.648 L 2410.12 755.648 Q 2388.66 755.648 2373.57 765.931 L 2373.57 765.931 L 2373.57 765.931 Q 2358.481 776.214 2352.892 792.309 L 2352.892 792.309 L 2352.892 792.309 Q 2351.551 796.78 2347.527 796.78 L 2347.527 796.78 L 2318.689 796.78 L 2318.689 796.78 Q 2313.548 796.78 2313.995 792.309 L 2313.995 792.309 L 2313.995 792.309 Q 2317.572 761.236 2343.503 742.458 L 2343.503 742.458 L 2343.503 742.458 Q 2369.434 723.681 2410.12 723.681 L 2410.12 723.681 L 2410.12 723.681 Q 2463.324 723.681 2491.714 749.947 L 2491.714 749.947 L 2491.714 749.947 Q 2520.105 776.214 2520.105 824.276 L 2520.105 824.276 L 2520.105 970.923 L 2520.105 970.923 Q 2520.105 975.394 2515.41 975.394 L 2515.41 975.394 L 2490.373 975.394 L 2490.373 975.394 Q 2485.902 975.394 2485.232 970.923 L 2485.232 970.923 L 2481.208 945.662 L 2481.208 945.662 Q 2478.525 949.91 2469.36 957.398 L 2469.36 957.398 L 2469.36 957.398 Q 2460.194 964.887 2451.029 969.582 L 2451.029 969.582 L 2451.029 969.582 Q 2426.886 982.324 2396.484 982.324 L 2396.484 982.324 L 2396.484 982.324 Q 2351.998 982.324 2326.178 961.422 Z  M 2341.491 904.53 L 2341.491 904.53 L 2341.491 904.53 Q 2341.491 926.884 2356.357 938.509 L 2356.357 938.509 L 2356.357 938.509 Q 2371.223 950.133 2398.719 950.133 L 2398.719 950.133 L 2398.719 950.133 Q 2413.473 950.133 2427.221 945.103 L 2427.221 945.103 L 2427.221 945.103 Q 2440.969 940.074 2449.799 933.255 L 2449.799 933.255 L 2449.799 933.255 Q 2458.629 926.437 2465.559 919.284 L 2465.559 919.284 L 2465.559 919.284 Q 2472.489 912.13 2475.731 907.324 L 2475.731 907.324 L 2475.731 907.324 Q 2478.972 902.518 2478.972 902.071 L 2478.972 902.071 L 2478.972 858.703 L 2400.954 858.703 L 2400.954 858.703 Q 2341.491 858.703 2341.491 904.53 Z  M 2607.064 970.923 L 2607.064 970.923 L 2607.064 659.523 L 2607.064 659.523 Q 2607.064 655.052 2611.535 654.828 L 2611.535 654.828 L 2643.726 654.828 L 2643.726 654.828 Q 2648.197 654.828 2648.197 659.523 L 2648.197 659.523 L 2648.197 835.677 L 2671.222 835.677 L 2671.222 835.677 Q 2708.778 835.677 2730.686 801.475 L 2730.686 801.475 L 2772.265 735.081 L 2772.265 735.081 Q 2775.395 730.61 2779.195 730.387 L 2779.195 730.387 L 2814.515 730.387 L 2814.515 730.387 Q 2821.445 730.387 2817.645 735.976 L 2817.645 735.976 L 2774.054 805.946 L 2774.054 805.946 Q 2750.358 843.949 2716.826 849.537 L 2716.826 849.537 L 2716.826 849.537 Q 2751.699 854.679 2778.748 897.6 L 2778.748 897.6 L 2824.128 969.805 L 2824.128 969.805 Q 2825.469 971.817 2825.358 973.606 L 2825.358 973.606 L 2825.358 973.606 Q 2825.246 975.394 2820.775 975.394 L 2820.775 975.394 L 2785.678 975.394 L 2785.678 975.394 Q 2782.101 975.394 2778.748 970.923 L 2778.748 970.923 L 2735.157 902.071 L 2735.157 902.071 Q 2713.249 867.645 2675.693 867.868 L 2675.693 867.868 L 2648.197 867.868 L 2648.197 970.923 L 2648.197 970.923 Q 2648.197 975.394 2643.726 975.394 L 2643.726 975.394 L 2611.535 975.394 L 2611.535 975.394 Q 2607.064 975.394 2607.064 970.923 Z  M 2892.421 961.422 L 2892.421 961.422 L 2892.421 961.422 Q 2866.602 940.521 2866.602 904.418 L 2866.602 904.418 L 2866.602 904.418 Q 2866.602 868.315 2893.092 847.414 L 2893.092 847.414 L 2893.092 847.414 Q 2919.582 826.512 2967.198 826.512 L 2967.198 826.512 L 3045.216 826.512 L 3045.216 824.276 L 3045.216 824.276 Q 3045.216 755.648 2976.363 755.648 L 2976.363 755.648 L 2976.363 755.648 Q 2954.903 755.648 2939.813 765.931 L 2939.813 765.931 L 2939.813 765.931 Q 2924.724 776.214 2919.135 792.309 L 2919.135 792.309 L 2919.135 792.309 Q 2917.794 796.78 2913.77 796.78 L 2913.77 796.78 L 2884.933 796.78 L 2884.933 796.78 Q 2879.791 796.78 2880.238 792.309 L 2880.238 792.309 L 2880.238 792.309 Q 2883.815 761.236 2909.746 742.458 L 2909.746 742.458 L 2909.746 742.458 Q 2935.678 723.681 2976.363 723.681 L 2976.363 723.681 L 2976.363 723.681 Q 3029.567 723.681 3057.958 749.947 L 3057.958 749.947 L 3057.958 749.947 Q 3086.348 776.214 3086.348 824.276 L 3086.348 824.276 L 3086.348 970.923 L 3086.348 970.923 Q 3086.348 975.394 3081.654 975.394 L 3081.654 975.394 L 3056.617 975.394 L 3056.617 975.394 Q 3052.146 975.394 3051.475 970.923 L 3051.475 970.923 L 3047.451 945.662 L 3047.451 945.662 Q 3044.768 949.91 3035.603 957.398 L 3035.603 957.398 L 3035.603 957.398 Q 3026.438 964.887 3017.272 969.582 L 3017.272 969.582 L 3017.272 969.582 Q 2993.129 982.324 2962.727 982.324 L 2962.727 982.324 L 2962.727 982.324 Q 2918.241 982.324 2892.421 961.422 Z  M 2907.734 904.53 L 2907.734 904.53 L 2907.734 904.53 Q 2907.734 926.884 2922.6 938.509 L 2922.6 938.509 L 2922.6 938.509 Q 2937.466 950.133 2964.962 950.133 L 2964.962 950.133 L 2964.962 950.133 Q 2979.716 950.133 2993.464 945.103 L 2993.464 945.103 L 2993.464 945.103 Q 3007.213 940.074 3016.043 933.255 L 3016.043 933.255 L 3016.043 933.255 Q 3024.873 926.437 3031.803 919.284 L 3031.803 919.284 L 3031.803 919.284 Q 3038.733 912.13 3041.974 907.324 L 3041.974 907.324 L 3041.974 907.324 Q 3045.216 902.518 3045.216 902.071 L 3045.216 902.071 L 3045.216 858.703 L 2967.198 858.703 L 2967.198 858.703 Q 2907.734 858.703 2907.734 904.53 Z " fill="rgb(81,81,81)"/></g></svg>